{"title":"Noobz.2012.BRRip.XviD.Ac3.Feel-Free","uid":8350487,"size":1536726174,"categoryP":"video","categoryS":"movies","magnet":"?xt=urn:btih:7741b5abe409b6d714ef5a20ac90b71f800cb010&amp;dn=Noobz.2012.BRRip.XviD.Ac3.Feel-Free&amp;tr=udp%3A%2F%2Ftracker.openbittorrent.com%3A80&amp;tr=udp%3A%2F%2Fopen.demonii.com%3A1337&amp;tr=udp%3A%2F%2Ftracker.coppersurfer.tk%3A6969&amp;tr=udp%3A%2F%2Fexodus.desync.com%3A6969","seeders":1,"leechers":0,"uploader":"Gh0stNet","files":7,"time":1365327646,"description":"Language:English\nIMDb:http://www.imdb.com/title/tt1884369/\nSource:720p.BluRay.x264-ENCOUNTERS Thanks\nSample:Never\nEncoder:Tony\n\nFormat                                   : AVI\nFormat/Info                              : Audio Video Interleave\nFile size                                : 1.43 GiB\nDuration                                 : 1h 40mn\nOverall bit rate                         : 2 043 Kbps\n\nVideo\nID                                       : 0\nFormat                                   : MPEG-4 Visual\nFormat profile                           : Advanced Simple@L5\nFormat settings, BVOP                    : 1\nFormat settings, QPel                    : No\nFormat settings, GMC                     : No warppoints\nFormat settings, Matrix                  : Default (H.263)\nCodec ID                                 : XVID\nCodec ID/Hint                            : XviD\nDuration                                 : 1h 40mn\nBit rate                                 : 1 650 Kbps\nWidth                                    : 640 pixels\nHeight                                   : 360 pixels\nDisplay aspect ratio                     : 16:9\nFrame rate                               : 23.976 fps\nColor space                              : YUV\nChroma subsampling                       : 4:2:0\nBit depth                                : 8 bits\nScan type                                : Progressive\nCompression mode                         : Lossy\nBits/(Pixel*Frame)                       : 0.299\nStream size                              : 1.15 GiB (81%)\nWriting library                          : XviD 1.2.1 (UTC 2008-12-04)\n\nAudio\nID                                       : 1\nFormat                                   : AC-3\nFormat/Info                              : Audio Coding 3\nMode extension                           : CM (complete main)\nCodec ID                                 : 2000\nDuration                                 : 1h 40mn\nBit rate mode                            : Constant\nBit rate                                 : 384 Kbps\nChannel(s)                               : 6 channels\nChannel positions                        : Front: L C R, Side: L R, LFE\nSampling rate                            : 48.0 KHz\nBit depth                                : 16 bits\nCompression mode                         : Lossy\nStream size                              : 275 MiB (19%)\nAlignment                                : Aligned on interleaves\nInterleave, duration                     : 42 ms (1.00 video frame)\nInterleave, preload duration             : 512 ms\n\nScreens:\n &lt;a href=&quot;\nhttp://i.imgur.com/4OHmzEK.png&quot; rel=&quot;nofollow&quot; target=&quot;_NEW&quot;&gt;\nhttp://i.imgur.com/4OHmzEK.png&lt;/a&gt; &lt;a href=&quot;\nhttp://i.imgur.com/wWscVBO.png&quot; rel=&quot;nofollow&quot; target=&quot;_NEW&quot;&gt;\nhttp://i.imgur.com/wWscVBO.png&lt;/a&gt; &lt;a href=&quot;\nhttp://i.imgur.com/UkHvSVg.png&quot; rel=&quot;nofollow&quot; target=&quot;_NEW&quot;&gt;\nhttp://i.imgur.com/UkHvSVg.png&lt;/a&gt;","torrent":{"xt":"urn:btih:7741b5abe409b6d714ef5a20ac90b71f800cb010","amp;dn":"Noobz.2012.BRRip.XviD.Ac3.Feel-Free","amp;tr":["udp%3A%2F%2Ftracker.openbittorrent.com%3A80","udp%3A%2F%2Fopen.demonii.com%3A1337","udp%3A%2F%2Ftracker.coppersurfer.tk%3A6969","udp%3A%2F%2Fexodus.desync.com%3A6969"],"infoHash":"7741b5abe409b6d714ef5a20ac90b71f800cb010","infoHashBuffer":{"type":"Buffer","data":[119,65,181,171,228,9,182,215,20,239,90,32,172,144,183,31,128,12,176,16]},"announce":[],"urlList":[]}}